<mxfile host="drawio-plugin" modified="2021-06-02T09:35:06.736Z" agent="5.0 (X11; Linux x86_64) AppleWebKit/537.36 (KHTML, like Gecko) Chrome/87.0.4280.141 Safari/537.36" version="14.6.6" etag="evlOPV7GjgLTB9WzPw9u" type="embed"><diagram id="aeQoFszJkPAtGPrjeG0S" name="Page-1"><mxGraphModel dx="1367" dy="570" grid="1" gridSize="10" guides="1" tooltips="1" connect="1" arrows="1" fold="1" page="1" pageScale="1" pageWidth="850" pageHeight="1100" math="0" shadow="0"><root><mxCell id="0"/><mxCell id="1" parent="0"/><mxCell id="14" value="" style="strokeWidth=1;shadow=0;dashed=0;align=center;html=1;shape=mxgraph.mockup.containers.browserWindow;rSize=0;strokeColor2=#008cff;strokeColor3=#c4c4c4;mainText=,;recursiveResize=0;fillColor=none;" vertex="1" parent="1"><mxGeometry x="60" y="108" width="700" height="480" as="geometry"/></mxCell><mxCell id="15" value="Page 1" style="strokeWidth=1;shadow=0;dashed=0;align=center;html=1;shape=mxgraph.mockup.containers.anchor;fontSize=17;fontColor=#666666;align=left;" vertex="1" parent="14"><mxGeometry x="60" y="12" width="110" height="26" as="geometry"/></mxCell><mxCell id="16" value="Супер пупер&amp;nbsp; хостинг" style="strokeWidth=1;shadow=0;dashed=0;align=center;html=1;shape=mxgraph.mockup.containers.anchor;rSize=0;fontSize=17;fontColor=#666666;align=left;" vertex="1" parent="14"><mxGeometry x="130" y="60" width="250" height="26" as="geometry"/></mxCell><mxCell id="13" value="" style="verticalLabelPosition=bottom;shadow=0;dashed=0;align=center;html=1;verticalAlign=top;strokeWidth=1;shape=mxgraph.mockup.containers.userMale;strokeColor=#10739e;strokeColor2=#008cff;fillColor=#b1ddf0;" vertex="1" parent="14"><mxGeometry x="640" y="130" width="40" height="30" as="geometry"/></mxCell><mxCell id="18" value="Send" style="strokeWidth=1;shadow=0;dashed=0;align=center;html=1;shape=mxgraph.mockup.buttons.button;strokeColor=#666666;fontColor=#ffffff;mainText=;buttonStyle=round;fontSize=17;fontStyle=1;fillColor=#008cff;whiteSpace=wrap;" vertex="1" parent="14"><mxGeometry x="490" y="440" width="70" height="30" as="geometry"/></mxCell><mxCell id="20" value="" style="strokeWidth=1;shadow=0;dashed=0;align=center;html=1;shape=mxgraph.mockup.forms.rrect;rSize=0;strokeColor=#999999;fillColor=#ffffff;" vertex="1" parent="14"><mxGeometry x="160" y="130" width="400" height="200" as="geometry"/></mxCell><mxCell id="21" value="Сообщения" style="strokeWidth=1;shadow=0;dashed=0;align=center;html=1;shape=mxgraph.mockup.forms.rrect;rSize=0;strokeColor=#999999;fontColor=#008cff;fontSize=17;fillColor=#ffffff;resizeWidth=1;" vertex="1" parent="20"><mxGeometry width="400" height="30" relative="1" as="geometry"/></mxCell><mxCell id="22" value="Item 1" style="strokeWidth=1;shadow=0;dashed=0;align=center;html=1;shape=mxgraph.mockup.forms.anchor;fontSize=17;fontColor=#666666;align=left;spacingLeft=5;resizeWidth=1;" vertex="1" parent="20"><mxGeometry width="400" height="20" relative="1" as="geometry"><mxPoint y="30" as="offset"/></mxGeometry></mxCell><mxCell id="23" value="Item 2" style="strokeWidth=1;shadow=0;dashed=0;align=center;html=1;shape=mxgraph.mockup.forms.anchor;fontSize=17;fontColor=#666666;align=left;spacingLeft=5;resizeWidth=1;" vertex="1" parent="20"><mxGeometry width="400" height="20" relative="1" as="geometry"><mxPoint y="50" as="offset"/></mxGeometry></mxCell><mxCell id="24" value="Item 3" style="strokeWidth=1;shadow=0;dashed=0;align=center;html=1;shape=mxgraph.mockup.forms.rrect;rSize=0;fontSize=17;fontColor=#666666;align=left;spacingLeft=5;fillColor=#ddeeff;strokeColor=none;resizeWidth=1;" vertex="1" parent="20"><mxGeometry width="400" height="20" relative="1" as="geometry"><mxPoint y="70" as="offset"/></mxGeometry></mxCell><mxCell id="25" value="Item 4" style="strokeWidth=1;shadow=0;dashed=0;align=center;html=1;shape=mxgraph.mockup.forms.anchor;fontSize=17;fontColor=#666666;align=left;spacingLeft=5;resizeWidth=1;" vertex="1" parent="20"><mxGeometry width="400" height="20" relative="1" as="geometry"><mxPoint y="90" as="offset"/></mxGeometry></mxCell><mxCell id="26" value="Текст сообщения&amp;nbsp; для отправки" style="strokeWidth=1;shadow=0;dashed=0;align=center;html=1;shape=mxgraph.mockup.forms.spinner;strokeColor=#999999;spinLayout=right;spinStyle=normal;adjStyle=triangle;fillColor=#aaddff;fontSize=17;fontColor=#666666;mainText=;html=1;overflow=fill;" vertex="1" parent="14"><mxGeometry x="160" y="352" width="400" height="60" as="geometry"/></mxCell></root></mxGraphModel></diagram></mxfile>